<mxfile host="app.diagrams.net" modified="2021-01-17T00:50:34.788Z" agent="5.0 (Windows)" etag="d4hYAY1HKMROw-0kGIPG" version="14.2.4" type="github">
  <diagram id="KUnnjZv3Av4wDXAYVS-r" name="Page-1">
    <mxGraphModel dx="2076" dy="2545" grid="1" gridSize="10" guides="1" tooltips="1" connect="1" arrows="1" fold="1" page="1" pageScale="1" pageWidth="827" pageHeight="1169" math="0" shadow="0">
      <root>
        <mxCell id="0" />
        <mxCell id="1" parent="0" />
        <mxCell id="PrC1PikN5vB50kxhNDIm-3" value="" style="edgeStyle=orthogonalEdgeStyle;rounded=0;orthogonalLoop=1;jettySize=auto;html=1;" parent="1" source="PrC1PikN5vB50kxhNDIm-1" target="PrC1PikN5vB50kxhNDIm-2" edge="1">
          <mxGeometry relative="1" as="geometry" />
        </mxCell>
        <mxCell id="PrC1PikN5vB50kxhNDIm-19" style="edgeStyle=orthogonalEdgeStyle;rounded=0;orthogonalLoop=1;jettySize=auto;html=1;exitX=1;exitY=0.5;exitDx=0;exitDy=0;entryX=0;entryY=0.5;entryDx=0;entryDy=0;" parent="1" source="PrC1PikN5vB50kxhNDIm-1" target="PrC1PikN5vB50kxhNDIm-15" edge="1">
          <mxGeometry relative="1" as="geometry">
            <Array as="points">
              <mxPoint x="560" />
              <mxPoint x="560" y="120" />
            </Array>
          </mxGeometry>
        </mxCell>
        <mxCell id="PrC1PikN5vB50kxhNDIm-20" style="edgeStyle=orthogonalEdgeStyle;rounded=0;orthogonalLoop=1;jettySize=auto;html=1;exitX=1;exitY=0.5;exitDx=0;exitDy=0;entryX=0;entryY=0.5;entryDx=0;entryDy=0;" parent="1" source="PrC1PikN5vB50kxhNDIm-1" target="PrC1PikN5vB50kxhNDIm-18" edge="1">
          <mxGeometry relative="1" as="geometry" />
        </mxCell>
        <mxCell id="PrC1PikN5vB50kxhNDIm-1" value="&lt;b&gt;&lt;font style=&quot;font-size: 18px&quot;&gt;САЙТ&lt;/font&gt;&lt;/b&gt;" style="rounded=0;whiteSpace=wrap;html=1;fillColor=#d5e8d4;strokeColor=#82b366;" parent="1" vertex="1">
          <mxGeometry x="360" y="-20" width="120" height="40" as="geometry" />
        </mxCell>
        <mxCell id="PrC1PikN5vB50kxhNDIm-11" style="edgeStyle=orthogonalEdgeStyle;rounded=0;orthogonalLoop=1;jettySize=auto;html=1;exitX=0.5;exitY=1;exitDx=0;exitDy=0;entryX=0.5;entryY=0;entryDx=0;entryDy=0;" parent="1" source="PrC1PikN5vB50kxhNDIm-2" target="PrC1PikN5vB50kxhNDIm-8" edge="1">
          <mxGeometry relative="1" as="geometry" />
        </mxCell>
        <mxCell id="PrC1PikN5vB50kxhNDIm-12" style="edgeStyle=orthogonalEdgeStyle;rounded=0;orthogonalLoop=1;jettySize=auto;html=1;exitX=0.5;exitY=1;exitDx=0;exitDy=0;entryX=0.5;entryY=0;entryDx=0;entryDy=0;" parent="1" source="PrC1PikN5vB50kxhNDIm-2" target="PrC1PikN5vB50kxhNDIm-6" edge="1">
          <mxGeometry relative="1" as="geometry" />
        </mxCell>
        <mxCell id="PrC1PikN5vB50kxhNDIm-13" style="edgeStyle=orthogonalEdgeStyle;rounded=0;orthogonalLoop=1;jettySize=auto;html=1;exitX=0.5;exitY=1;exitDx=0;exitDy=0;entryX=0.5;entryY=0;entryDx=0;entryDy=0;" parent="1" source="PrC1PikN5vB50kxhNDIm-2" target="PrC1PikN5vB50kxhNDIm-7" edge="1">
          <mxGeometry relative="1" as="geometry" />
        </mxCell>
        <mxCell id="PrC1PikN5vB50kxhNDIm-14" style="edgeStyle=orthogonalEdgeStyle;rounded=0;orthogonalLoop=1;jettySize=auto;html=1;exitX=0.5;exitY=1;exitDx=0;exitDy=0;entryX=0.5;entryY=0;entryDx=0;entryDy=0;" parent="1" source="PrC1PikN5vB50kxhNDIm-2" target="PrC1PikN5vB50kxhNDIm-9" edge="1">
          <mxGeometry relative="1" as="geometry" />
        </mxCell>
        <mxCell id="PrC1PikN5vB50kxhNDIm-2" value="Главная" style="whiteSpace=wrap;html=1;rounded=0;fillColor=#f8cecc;strokeColor=#b85450;" parent="1" vertex="1">
          <mxGeometry x="360" y="280" width="120" height="40" as="geometry" />
        </mxCell>
        <mxCell id="PrC1PikN5vB50kxhNDIm-4" value="&lt;div&gt;Страница&lt;/div&gt;&lt;div&gt;Услуги&lt;/div&gt;" style="rounded=0;whiteSpace=wrap;html=1;fillColor=#dae8fc;strokeColor=#6c8ebf;" parent="1" vertex="1">
          <mxGeometry x="120" y="440" width="120" height="40" as="geometry" />
        </mxCell>
        <mxCell id="PrC1PikN5vB50kxhNDIm-6" value="Портфолио" style="rounded=0;whiteSpace=wrap;html=1;fillColor=#dae8fc;strokeColor=#6c8ebf;" parent="1" vertex="1">
          <mxGeometry x="280" y="360" width="120" height="40" as="geometry" />
        </mxCell>
        <mxCell id="PrC1PikN5vB50kxhNDIm-7" value="Контакты" style="rounded=0;whiteSpace=wrap;html=1;fillColor=#dae8fc;strokeColor=#6c8ebf;" parent="1" vertex="1">
          <mxGeometry x="440" y="360" width="120" height="40" as="geometry" />
        </mxCell>
        <mxCell id="PrC1PikN5vB50kxhNDIm-10" style="edgeStyle=orthogonalEdgeStyle;rounded=0;orthogonalLoop=1;jettySize=auto;html=1;exitX=0.5;exitY=1;exitDx=0;exitDy=0;entryX=0.5;entryY=0;entryDx=0;entryDy=0;" parent="1" source="PrC1PikN5vB50kxhNDIm-8" target="PrC1PikN5vB50kxhNDIm-4" edge="1">
          <mxGeometry relative="1" as="geometry" />
        </mxCell>
        <mxCell id="PrC1PikN5vB50kxhNDIm-8" value="&lt;div&gt;Страница&lt;/div&gt;&lt;div&gt;Категории Услуг&lt;/div&gt;" style="rounded=0;whiteSpace=wrap;html=1;fillColor=#dae8fc;strokeColor=#6c8ebf;" parent="1" vertex="1">
          <mxGeometry x="120" y="360" width="120" height="40" as="geometry" />
        </mxCell>
        <mxCell id="PrC1PikN5vB50kxhNDIm-9" value="О Компании" style="rounded=0;whiteSpace=wrap;html=1;fillColor=#dae8fc;strokeColor=#6c8ebf;" parent="1" vertex="1">
          <mxGeometry x="600" y="360" width="120" height="40" as="geometry" />
        </mxCell>
        <mxCell id="PrC1PikN5vB50kxhNDIm-23" style="edgeStyle=orthogonalEdgeStyle;rounded=0;orthogonalLoop=1;jettySize=auto;html=1;exitX=1;exitY=0.5;exitDx=0;exitDy=0;entryX=0.5;entryY=0;entryDx=0;entryDy=0;" parent="1" source="PrC1PikN5vB50kxhNDIm-15" target="PrC1PikN5vB50kxhNDIm-21" edge="1">
          <mxGeometry relative="1" as="geometry" />
        </mxCell>
        <mxCell id="PrC1PikN5vB50kxhNDIm-15" value="&lt;div&gt;&lt;b&gt;Форма обратной связи&lt;/b&gt;&lt;/div&gt;&lt;div&gt;&lt;br&gt;&lt;/div&gt;&lt;div&gt;Имя / Телефон&lt;br&gt;&lt;/div&gt;" style="rounded=0;whiteSpace=wrap;html=1;fillColor=#e1d5e7;strokeColor=#9673a6;" parent="1" vertex="1">
          <mxGeometry x="640" y="80" width="120" height="80" as="geometry" />
        </mxCell>
        <mxCell id="PrC1PikN5vB50kxhNDIm-22" style="edgeStyle=orthogonalEdgeStyle;rounded=0;orthogonalLoop=1;jettySize=auto;html=1;exitX=1;exitY=0.5;exitDx=0;exitDy=0;entryX=0.5;entryY=0;entryDx=0;entryDy=0;" parent="1" source="PrC1PikN5vB50kxhNDIm-18" target="PrC1PikN5vB50kxhNDIm-21" edge="1">
          <mxGeometry relative="1" as="geometry" />
        </mxCell>
        <mxCell id="PrC1PikN5vB50kxhNDIm-18" value="&lt;div&gt;&lt;b&gt;Форма в контактах&lt;/b&gt;&lt;/div&gt;&lt;div&gt;&lt;br&gt;&lt;/div&gt;&lt;div&gt;Имя / Email / Тема / Сообщение&lt;br&gt;&lt;/div&gt;" style="rounded=0;whiteSpace=wrap;html=1;fillColor=#e1d5e7;strokeColor=#9673a6;" parent="1" vertex="1">
          <mxGeometry x="640" y="-40" width="120" height="80" as="geometry" />
        </mxCell>
        <mxCell id="PrC1PikN5vB50kxhNDIm-25" style="edgeStyle=orthogonalEdgeStyle;rounded=0;orthogonalLoop=1;jettySize=auto;html=1;exitX=1;exitY=0.5;exitDx=0;exitDy=0;entryX=0;entryY=0.5;entryDx=0;entryDy=0;" parent="1" source="PrC1PikN5vB50kxhNDIm-21" target="PrC1PikN5vB50kxhNDIm-24" edge="1">
          <mxGeometry relative="1" as="geometry" />
        </mxCell>
        <mxCell id="PrC1PikN5vB50kxhNDIm-27" style="edgeStyle=orthogonalEdgeStyle;rounded=0;orthogonalLoop=1;jettySize=auto;html=1;exitX=1;exitY=0.5;exitDx=0;exitDy=0;" parent="1" source="PrC1PikN5vB50kxhNDIm-21" target="PrC1PikN5vB50kxhNDIm-26" edge="1">
          <mxGeometry relative="1" as="geometry" />
        </mxCell>
        <mxCell id="wbJlyTy-9nVuBJYnycO--4" style="edgeStyle=orthogonalEdgeStyle;rounded=0;orthogonalLoop=1;jettySize=auto;html=1;exitX=1;exitY=0.5;exitDx=0;exitDy=0;entryX=0;entryY=0.5;entryDx=0;entryDy=0;" edge="1" parent="1" source="PrC1PikN5vB50kxhNDIm-21" target="wbJlyTy-9nVuBJYnycO--3">
          <mxGeometry relative="1" as="geometry" />
        </mxCell>
        <mxCell id="PrC1PikN5vB50kxhNDIm-21" value="&lt;b&gt;&lt;font style=&quot;font-size: 18px&quot;&gt;Firebase&lt;/font&gt;&lt;/b&gt;" style="rounded=0;whiteSpace=wrap;html=1;fillColor=#d5e8d4;strokeColor=#82b366;" parent="1" vertex="1">
          <mxGeometry x="880" y="160" width="120" height="40" as="geometry" />
        </mxCell>
        <mxCell id="PrC1PikN5vB50kxhNDIm-24" value="&lt;div&gt;&lt;b&gt;Cloud functions&lt;/b&gt;&lt;/div&gt;&lt;div&gt;&lt;b&gt;&lt;br&gt;&lt;/b&gt;&lt;/div&gt;&lt;div&gt;Отправка писем на имейл&lt;br&gt;&lt;b&gt;&lt;/b&gt;&lt;/div&gt;" style="whiteSpace=wrap;html=1;rounded=0;fillColor=#f8cecc;strokeColor=#b85450;" parent="1" vertex="1">
          <mxGeometry x="1080" y="80" width="120" height="80" as="geometry" />
        </mxCell>
        <mxCell id="PrC1PikN5vB50kxhNDIm-29" value="" style="edgeStyle=orthogonalEdgeStyle;rounded=0;orthogonalLoop=1;jettySize=auto;html=1;" parent="1" source="PrC1PikN5vB50kxhNDIm-26" target="PrC1PikN5vB50kxhNDIm-28" edge="1">
          <mxGeometry relative="1" as="geometry" />
        </mxCell>
        <mxCell id="PrC1PikN5vB50kxhNDIm-26" value="&lt;b&gt;Real time database&lt;br&gt;&lt;/b&gt;&lt;div&gt;&lt;b&gt;&lt;br&gt;&lt;/b&gt;&lt;/div&gt;&lt;div&gt;Сохранение данных с форм&lt;br&gt;&lt;b&gt;&lt;/b&gt;&lt;/div&gt;" style="whiteSpace=wrap;html=1;rounded=0;fillColor=#f8cecc;strokeColor=#b85450;" parent="1" vertex="1">
          <mxGeometry x="1080" y="200" width="120" height="80" as="geometry" />
        </mxCell>
        <mxCell id="wbJlyTy-9nVuBJYnycO--16" value="" style="edgeStyle=orthogonalEdgeStyle;rounded=0;orthogonalLoop=1;jettySize=auto;html=1;entryX=0;entryY=0.5;entryDx=0;entryDy=0;" edge="1" parent="1" source="PrC1PikN5vB50kxhNDIm-28" target="wbJlyTy-9nVuBJYnycO--15">
          <mxGeometry relative="1" as="geometry" />
        </mxCell>
        <mxCell id="wbJlyTy-9nVuBJYnycO--19" style="edgeStyle=orthogonalEdgeStyle;rounded=0;orthogonalLoop=1;jettySize=auto;html=1;exitX=1;exitY=0.5;exitDx=0;exitDy=0;entryX=0;entryY=0.5;entryDx=0;entryDy=0;" edge="1" parent="1" source="PrC1PikN5vB50kxhNDIm-28" target="wbJlyTy-9nVuBJYnycO--18">
          <mxGeometry relative="1" as="geometry" />
        </mxCell>
        <mxCell id="PrC1PikN5vB50kxhNDIm-28" value="&lt;div&gt;&lt;b&gt;Админка &lt;/b&gt;&lt;br&gt;&lt;/div&gt;" style="whiteSpace=wrap;html=1;rounded=0;strokeColor=#6c8ebf;fillColor=#dae8fc;" parent="1" vertex="1">
          <mxGeometry x="1280" y="330" width="120" height="60" as="geometry" />
        </mxCell>
        <mxCell id="wbJlyTy-9nVuBJYnycO--2" style="edgeStyle=orthogonalEdgeStyle;rounded=0;orthogonalLoop=1;jettySize=auto;html=1;exitX=0;exitY=0.5;exitDx=0;exitDy=0;entryX=0.5;entryY=0;entryDx=0;entryDy=0;" edge="1" parent="1" source="wbJlyTy-9nVuBJYnycO--1" target="PrC1PikN5vB50kxhNDIm-1">
          <mxGeometry relative="1" as="geometry" />
        </mxCell>
        <mxCell id="wbJlyTy-9nVuBJYnycO--8" value="" style="edgeStyle=orthogonalEdgeStyle;rounded=0;orthogonalLoop=1;jettySize=auto;html=1;" edge="1" parent="1" source="wbJlyTy-9nVuBJYnycO--1" target="wbJlyTy-9nVuBJYnycO--7">
          <mxGeometry relative="1" as="geometry" />
        </mxCell>
        <mxCell id="wbJlyTy-9nVuBJYnycO--1" value="&lt;br&gt;&lt;b&gt;&lt;font style=&quot;font-size: 18px&quot;&gt;Nuxt Static Site Generator&lt;br&gt;&lt;/font&gt;&lt;/b&gt;" style="rounded=0;whiteSpace=wrap;html=1;fillColor=#d5e8d4;strokeColor=#82b366;" vertex="1" parent="1">
          <mxGeometry x="630" y="-150" width="170" height="70" as="geometry" />
        </mxCell>
        <mxCell id="wbJlyTy-9nVuBJYnycO--5" style="edgeStyle=orthogonalEdgeStyle;rounded=0;orthogonalLoop=1;jettySize=auto;html=1;exitX=1;exitY=0.5;exitDx=0;exitDy=0;entryX=0;entryY=0.5;entryDx=0;entryDy=0;" edge="1" parent="1" source="wbJlyTy-9nVuBJYnycO--3" target="PrC1PikN5vB50kxhNDIm-28">
          <mxGeometry relative="1" as="geometry">
            <mxPoint x="1280" y="350" as="targetPoint" />
          </mxGeometry>
        </mxCell>
        <mxCell id="wbJlyTy-9nVuBJYnycO--3" value="&lt;b&gt;Hosting&lt;br&gt;&lt;/b&gt;&lt;div&gt;&lt;b&gt;&lt;br&gt;&lt;/b&gt;&lt;/div&gt;&lt;div&gt;Бесплатный хостинг для админки&lt;br&gt;&lt;/div&gt;" style="whiteSpace=wrap;html=1;rounded=0;fillColor=#f8cecc;strokeColor=#b85450;" vertex="1" parent="1">
          <mxGeometry x="1080" y="320" width="120" height="80" as="geometry" />
        </mxCell>
        <mxCell id="wbJlyTy-9nVuBJYnycO--11" value="" style="edgeStyle=orthogonalEdgeStyle;rounded=0;orthogonalLoop=1;jettySize=auto;html=1;entryX=0;entryY=0.5;entryDx=0;entryDy=0;" edge="1" parent="1" source="wbJlyTy-9nVuBJYnycO--7" target="wbJlyTy-9nVuBJYnycO--9">
          <mxGeometry relative="1" as="geometry" />
        </mxCell>
        <mxCell id="wbJlyTy-9nVuBJYnycO--14" style="edgeStyle=orthogonalEdgeStyle;rounded=0;orthogonalLoop=1;jettySize=auto;html=1;exitX=1;exitY=0.5;exitDx=0;exitDy=0;entryX=0;entryY=0.5;entryDx=0;entryDy=0;" edge="1" parent="1" source="wbJlyTy-9nVuBJYnycO--7" target="wbJlyTy-9nVuBJYnycO--12">
          <mxGeometry relative="1" as="geometry" />
        </mxCell>
        <mxCell id="wbJlyTy-9nVuBJYnycO--20" style="edgeStyle=orthogonalEdgeStyle;rounded=0;orthogonalLoop=1;jettySize=auto;html=1;exitX=1;exitY=0.5;exitDx=0;exitDy=0;entryX=0;entryY=0.5;entryDx=0;entryDy=0;" edge="1" parent="1" source="wbJlyTy-9nVuBJYnycO--7" target="wbJlyTy-9nVuBJYnycO--21">
          <mxGeometry relative="1" as="geometry">
            <mxPoint x="1020" y="-60" as="targetPoint" />
          </mxGeometry>
        </mxCell>
        <mxCell id="wbJlyTy-9nVuBJYnycO--7" value="&lt;font style=&quot;font-size: 14px&quot;&gt;&lt;b&gt;Vuex Хранилище&lt;br&gt;&lt;/b&gt;&lt;/font&gt;" style="whiteSpace=wrap;html=1;rounded=0;strokeColor=#6c8ebf;fillColor=#dae8fc;" vertex="1" parent="1">
          <mxGeometry x="880" y="-145" width="120" height="60" as="geometry" />
        </mxCell>
        <mxCell id="wbJlyTy-9nVuBJYnycO--9" value="Портфолио" style="whiteSpace=wrap;html=1;rounded=0;strokeColor=#6c8ebf;fillColor=#dae8fc;" vertex="1" parent="1">
          <mxGeometry x="1080" y="-215" width="120" height="40" as="geometry" />
        </mxCell>
        <mxCell id="wbJlyTy-9nVuBJYnycO--12" value="Услуги" style="whiteSpace=wrap;html=1;rounded=0;strokeColor=#6c8ebf;fillColor=#dae8fc;" vertex="1" parent="1">
          <mxGeometry x="1080" y="-135" width="120" height="40" as="geometry" />
        </mxCell>
        <mxCell id="wbJlyTy-9nVuBJYnycO--15" value="&lt;div&gt;Таблица ответов с форм&lt;/div&gt;&lt;div&gt;Имя \ Телефон \ Страница &lt;br&gt;&lt;/div&gt;" style="whiteSpace=wrap;html=1;rounded=0;strokeColor=#9673a6;fillColor=#e1d5e7;" vertex="1" parent="1">
          <mxGeometry x="1440" y="280" width="160" height="40" as="geometry" />
        </mxCell>
        <mxCell id="wbJlyTy-9nVuBJYnycO--18" value="Статистика ответов по страницам \ дням" style="whiteSpace=wrap;html=1;rounded=0;strokeColor=#9673a6;fillColor=#e1d5e7;" vertex="1" parent="1">
          <mxGeometry x="1440" y="400" width="160" height="40" as="geometry" />
        </mxCell>
        <mxCell id="wbJlyTy-9nVuBJYnycO--21" value="Текста переводов" style="whiteSpace=wrap;html=1;rounded=0;strokeColor=#6c8ebf;fillColor=#dae8fc;" vertex="1" parent="1">
          <mxGeometry x="1080" y="-55" width="120" height="40" as="geometry" />
        </mxCell>
      </root>
    </mxGraphModel>
  </diagram>
</mxfile>
